<svg width="556" height="556" viewBox="0 0 556 556" fill="none" xmlns="http://www.w3.org/2000/svg">
<path d="M273.569 54C273.569 54 560.137 503.5 496.137 439.5C432.137 375.5 224.837 439.5 51 439.5L273.569 54Z" fill="#FF0000"/>
<path d="M47.0769 342.813L49.2786 339L70.1297 351.038C72.2824 352.281 73.9116 353.898 75.0171 355.89C76.1183 357.865 76.6261 360.051 76.5405 362.448C76.4447 364.84 75.6837 367.271 74.2573 369.741C72.8309 372.212 71.1062 374.086 69.0832 375.365C67.0499 376.638 64.8997 377.296 62.6325 377.34C60.361 377.368 58.1489 376.761 55.9962 375.518L35.1451 363.48L37.3468 359.666L57.8903 371.527C59.428 372.415 60.9919 372.867 62.5819 372.882C64.1617 372.892 65.656 372.47 67.0649 371.616C68.4695 370.746 69.6778 369.434 70.6898 367.681C71.7019 365.928 72.2337 364.226 72.2851 362.575C72.3262 360.917 71.9446 359.412 71.1401 358.059C70.3314 356.69 69.1581 355.562 67.6204 354.674L47.0769 342.813ZM68.093 306.412L99.5848 324.594L97.4542 328.284L62.8205 331.17L62.6429 331.477L87.3689 345.753L85.1672 349.566L53.6754 331.384L55.8061 327.694L90.5368 324.783L90.7143 324.475L65.9268 310.164L68.093 306.412ZM96.9705 279.122L94.7688 282.936C93.5417 282.528 92.3502 282.366 91.1944 282.451C90.0444 282.525 88.9567 282.799 87.9312 283.273C86.9014 283.731 85.9648 284.359 85.1215 285.157C84.2781 285.955 83.5545 286.876 82.9509 287.922C81.85 289.829 81.3345 291.834 81.4044 293.939C81.4803 296.033 82.1928 298.077 83.542 300.073C84.8972 302.058 86.9382 303.838 89.665 305.412C92.3918 306.986 94.9537 307.864 97.3505 308.045C99.7532 308.216 101.88 307.81 103.732 306.829C105.589 305.838 107.068 304.388 108.169 302.482C108.773 301.436 109.209 300.349 109.478 299.219C109.748 298.09 109.828 296.968 109.72 295.853C109.608 294.722 109.296 293.64 108.786 292.607C108.27 291.558 107.535 290.607 106.578 289.754L108.78 285.94C110.224 287.157 111.362 288.511 112.195 290.003C113.028 291.496 113.565 293.063 113.806 294.706C114.037 296.343 113.977 297.996 113.628 299.667C113.284 301.328 112.654 302.952 111.736 304.541C110.186 307.227 108.151 309.237 105.631 310.571C103.111 311.904 100.296 312.472 97.1841 312.275C94.0723 312.078 90.8557 311.02 87.5343 309.103C84.2129 307.185 81.6888 304.928 79.962 302.332C78.2352 299.736 77.3194 297.013 77.2146 294.164C77.1098 291.315 77.8328 288.548 79.3834 285.862C80.3008 284.273 81.3926 282.915 82.6588 281.787C83.931 280.649 85.3385 279.774 86.8814 279.161C88.4141 278.542 90.0349 278.221 91.7441 278.196C93.4429 278.165 95.1851 278.474 96.9705 279.122ZM122.179 285.46L90.6871 267.278L101.66 248.272L105.043 250.225L96.2717 265.418L106.913 271.561L115.116 257.353L118.499 259.306L110.295 273.514L120.998 279.693L129.911 264.255L133.294 266.208L122.179 285.46ZM137.12 259.581L105.629 241.399L111.772 230.758C113.192 228.298 114.779 226.521 116.531 225.428C118.273 224.328 120.09 223.819 121.984 223.901C123.878 223.983 125.752 224.56 127.608 225.631C129.463 226.702 130.889 228.031 131.887 229.619C132.884 231.206 133.34 233.02 133.254 235.062C133.159 237.098 132.406 239.336 130.998 241.776L126.026 250.387L122.582 248.398L127.482 239.91C128.453 238.229 128.988 236.734 129.088 235.425C129.194 234.105 128.929 232.955 128.293 231.972C127.653 230.974 126.702 230.111 125.441 229.383C124.181 228.655 122.942 228.255 121.727 228.182C120.512 228.109 119.349 228.442 118.238 229.181C117.118 229.915 116.066 231.132 115.084 232.834L111.213 239.538L139.322 255.767L137.12 259.581ZM131.532 236.59L150.153 237.007L147.596 241.436L129.046 240.895L131.532 236.59ZM124.008 217.377L120.625 215.423L134.262 191.805L137.645 193.758L131.927 203.66L160.036 219.889L157.835 223.703L129.726 207.474L124.008 217.377ZM167.773 206.488L165.465 210.486L140.649 180.741L142.922 176.804L181.09 183.423L178.782 187.421L146.839 181.526L146.697 181.772L167.773 206.488ZM156.324 197.91L165.628 181.795L169.011 183.748L159.707 199.863L156.324 197.91ZM154.632 156.522L186.124 174.704L183.922 178.518L152.43 160.336L154.632 156.522ZM173.464 123.904L204.956 142.086L202.825 145.776L168.192 148.661L168.014 148.969L192.74 163.245L190.538 167.058L159.046 148.876L161.177 145.186L195.908 142.275L196.085 141.967L171.298 127.656L173.464 123.904ZM180.258 119.949L176.875 117.996L190.512 94.3767L193.895 96.3298L188.177 106.233L216.286 122.461L214.085 126.275L185.976 110.046L180.258 119.949ZM192.347 91.1975L194.869 86.8305L214.611 86.5837L214.825 86.2146L205.167 68.9933L207.688 64.6263L219.632 86.6941L232.61 94.187L230.409 98.0005L217.431 90.5076L192.347 91.1975Z" fill="black"/>
<path d="M361.899 88.225L330.408 106.407L328.206 102.593L359.698 84.4115L361.899 88.225ZM380.732 120.843L349.24 139.025L347.109 135.335L361.927 103.898L361.75 103.591L337.024 117.866L334.822 114.053L366.314 95.8711L368.445 99.5616L353.6 131.095L353.778 131.402L378.565 117.091L380.732 120.843ZM361.422 160.126L359.114 156.128L397.282 149.509L399.555 153.446L374.739 183.191L372.431 179.193L393.507 154.477L393.365 154.231L361.422 160.126ZM374.576 154.5L383.88 170.615L380.497 172.568L371.193 156.453L374.576 154.5ZM377.571 188.096L409.063 169.915L415.206 180.555C416.627 183.016 417.373 185.278 417.443 187.342C417.525 189.4 417.056 191.229 416.039 192.828C415.021 194.427 413.584 195.762 411.729 196.833C409.873 197.904 408.009 198.475 406.136 198.545C404.263 198.615 402.463 198.102 400.738 197.007C399.022 195.907 397.46 194.136 396.052 191.696L391.08 183.085L394.524 181.097L399.425 189.585C400.396 191.266 401.423 192.477 402.507 193.218C403.597 193.969 404.726 194.315 405.894 194.256C407.079 194.201 408.302 193.809 409.563 193.081C410.823 192.353 411.789 191.481 412.46 190.465C413.131 189.449 413.424 188.275 413.339 186.944C413.264 185.607 412.735 184.087 411.753 182.385L407.882 175.681L379.773 191.91L377.571 188.096ZM400.276 194.752L390.604 210.67L388.047 206.241L397.79 190.447L400.276 194.752ZM420.677 197.843L424.06 195.89L437.696 219.509L434.313 221.462L428.596 211.559L400.487 227.788L398.285 223.974L426.394 207.746L420.677 197.843ZM443.296 229.208L411.804 247.39L409.602 243.576L441.094 225.394L443.296 229.208ZM416.219 255.036L447.71 236.854L458.612 255.737L455.23 257.69L446.529 242.621L435.888 248.764L443.772 262.419L440.389 264.372L432.506 250.717L418.42 258.849L416.219 255.036ZM464.585 266.082L433.093 284.263L430.891 280.45L462.383 262.268L464.585 266.082ZM473.789 304.751L471.587 300.937C472.554 300.078 473.29 299.127 473.795 298.084C474.305 297.051 474.612 295.972 474.714 294.847C474.832 293.726 474.757 292.601 474.487 291.472C474.218 290.342 473.782 289.255 473.178 288.209C472.077 286.303 470.598 284.853 468.741 283.862C466.889 282.88 464.762 282.475 462.36 282.646C459.963 282.827 457.401 283.705 454.674 285.279C451.947 286.853 449.906 288.633 448.551 290.618C447.202 292.614 446.489 294.658 446.413 296.752C446.344 298.857 446.859 300.862 447.96 302.769C448.564 303.815 449.287 304.736 450.131 305.534C450.974 306.332 451.905 306.963 452.925 307.427C453.961 307.895 455.053 308.166 456.203 308.24C457.37 308.319 458.561 308.157 459.778 307.755L461.98 311.569C460.204 312.211 458.462 312.52 456.753 312.495C455.044 312.47 453.418 312.152 451.875 311.539C450.342 310.92 448.94 310.042 447.668 308.904C446.402 307.776 445.31 306.418 444.392 304.829C442.842 302.143 442.119 299.375 442.224 296.527C442.328 293.678 443.244 290.955 444.971 288.359C446.698 285.763 449.222 283.506 452.543 281.588C455.865 279.671 459.081 278.613 462.193 278.416C465.305 278.219 468.121 278.787 470.64 280.12C473.16 281.454 475.195 283.464 476.745 286.15C477.663 287.739 478.293 289.363 478.637 291.024C478.986 292.695 479.041 294.351 478.8 295.994C478.569 297.63 478.038 299.195 477.204 300.687C476.381 302.174 475.243 303.528 473.789 304.751ZM489.39 309.045L457.898 327.226L455.696 323.413L487.188 305.231L489.39 309.045ZM463.058 336.164L460.75 332.166L498.918 325.548L501.191 329.484L476.375 359.229L474.067 355.231L495.143 330.515L495.001 330.269L463.058 336.164ZM476.212 330.538L485.516 346.653L482.133 348.606L472.829 332.491L476.212 330.538ZM479.207 364.135L510.699 345.953L512.9 349.766L484.792 365.995L493.243 380.634L489.86 382.587L479.207 364.135Z" fill="black"/>
<path d="M109.807 452.636V489H105.403V452.636H109.807ZM147.471 452.636V489H143.21L123.394 460.449H123.039V489H118.636V452.636H122.897L142.784 481.259H143.139V452.636H147.471ZM154.294 456.543V452.636H181.566V456.543H170.132V489H165.728V456.543H154.294ZM188.362 489V452.636H210.308V456.543H192.766V468.83H209.172V472.736H192.766V485.094H210.593V489H188.362ZM218.245 489V452.636H222.649V485.094H239.552V489H218.245ZM246.37 489V452.636H250.774V485.094H267.677V489H246.37ZM278.899 452.636V489H274.495V452.636H278.899ZM312.586 464C312.195 462.804 311.68 461.733 311.041 460.786C310.413 459.827 309.662 459.011 308.786 458.336C307.922 457.661 306.939 457.146 305.838 456.791C304.738 456.436 303.53 456.259 302.216 456.259C300.062 456.259 298.103 456.815 296.339 457.928C294.575 459.04 293.173 460.68 292.131 462.846C291.089 465.012 290.569 467.67 290.569 470.818C290.569 473.967 291.095 476.624 292.149 478.79C293.202 480.957 294.629 482.596 296.428 483.709C298.227 484.821 300.251 485.378 302.5 485.378C304.584 485.378 306.418 484.934 308.005 484.046C309.603 483.147 310.846 481.88 311.733 480.246C312.633 478.601 313.083 476.666 313.083 474.44L314.432 474.724H303.495V470.818H317.344V474.724C317.344 477.719 316.705 480.323 315.426 482.537C314.16 484.75 312.408 486.467 310.171 487.686C307.945 488.893 305.389 489.497 302.5 489.497C299.281 489.497 296.452 488.74 294.013 487.224C291.587 485.709 289.693 483.555 288.331 480.761C286.982 477.968 286.307 474.653 286.307 470.818C286.307 467.942 286.692 465.355 287.461 463.059C288.243 460.751 289.343 458.786 290.764 457.164C292.184 455.542 293.865 454.299 295.806 453.435C297.748 452.571 299.884 452.139 302.216 452.139C304.134 452.139 305.921 452.429 307.578 453.009C309.248 453.577 310.733 454.388 312.035 455.442C313.349 456.483 314.444 457.732 315.32 459.188C316.196 460.632 316.8 462.236 317.131 464H312.586ZM324.886 489V452.636H346.832V456.543H329.289V468.83H345.695V472.736H329.289V485.094H347.116V489H324.886ZM383.604 452.636V489H379.343L359.527 460.449H359.172V489H354.769V452.636H359.03L378.916 481.259H379.271V452.636H383.604ZM421.676 464H417.273C417.013 462.733 416.557 461.621 415.906 460.662C415.267 459.703 414.485 458.898 413.562 458.247C412.651 457.584 411.639 457.087 410.526 456.756C409.413 456.424 408.253 456.259 407.046 456.259C404.844 456.259 402.85 456.815 401.062 457.928C399.287 459.04 397.872 460.68 396.819 462.846C395.777 465.012 395.256 467.67 395.256 470.818C395.256 473.967 395.777 476.624 396.819 478.79C397.872 480.957 399.287 482.596 401.062 483.709C402.85 484.821 404.844 485.378 407.046 485.378C408.253 485.378 409.413 485.212 410.526 484.881C411.639 484.549 412.651 484.058 413.562 483.407C414.485 482.744 415.267 481.933 415.906 480.974C416.557 480.004 417.013 478.891 417.273 477.636H421.676C421.345 479.495 420.741 481.158 419.865 482.626C418.989 484.094 417.9 485.342 416.598 486.372C415.296 487.39 413.834 488.165 412.213 488.698C410.603 489.231 408.881 489.497 407.046 489.497C403.944 489.497 401.186 488.74 398.772 487.224C396.357 485.709 394.457 483.555 393.072 480.761C391.687 477.968 390.995 474.653 390.995 470.818C390.995 466.983 391.687 463.669 393.072 460.875C394.457 458.081 396.357 455.927 398.772 454.412C401.186 452.897 403.944 452.139 407.046 452.139C408.881 452.139 410.603 452.406 412.213 452.938C413.834 453.471 415.296 454.252 416.598 455.282C417.9 456.3 418.989 457.543 419.865 459.011C420.741 460.467 421.345 462.13 421.676 464ZM428.792 489V452.636H450.738V456.543H433.195V468.83H449.602V472.736H433.195V485.094H451.022V489H428.792Z" fill="black"/>
</svg>
